<svg id="visual" viewBox="0 0 900 600" width="900" height="600" xmlns="http://www.w3.org/2000/svg" xmlns:xlink="http://www.w3.org/1999/xlink" version="1.1"><rect x="0" y="0" width="900" height="600" fill="#001220"></rect><g fill="#A7233A"><circle r="41" cx="214" cy="480"></circle><circle r="11" cx="562" cy="186"></circle><circle r="20" cx="142" cy="111"></circle><circle r="26" cx="635" cy="14"></circle><circle r="11" cx="131" cy="306"></circle><circle r="14" cx="574" cy="542"></circle><circle r="19" cx="39" cy="180"></circle><circle r="13" cx="381" cy="499"></circle><circle r="36" cx="534" cy="362"></circle><circle r="24" cx="463" cy="287"></circle><circle r="17" cx="269" cy="362"></circle><circle r="35" cx="845" cy="235"></circle><circle r="23" cx="734" cy="118"></circle><circle r="16" cx="474" cy="99"></circle><circle r="25" cx="822" cy="402"></circle><circle r="19" cx="331" cy="578"></circle><circle r="19" cx="269" cy="21"></circle><circle r="17" cx="721" cy="550"></circle><circle r="14" cx="597" cy="301"></circle><circle r="31" cx="289" cy="225"></circle><circle r="32" cx="684" cy="418"></circle><circle r="10" cx="364" cy="136"></circle><circle r="38" cx="125" cy="390"></circle><circle r="24" cx="423" cy="382"></circle><circle r="15" cx="494" cy="483"></circle><circle r="35" cx="830" cy="120"></circle></g></svg>