<?xml version="1.0" encoding="utf-8"?>
<svg xmlns="http://www.w3.org/2000/svg" xmlns:xlink="http://www.w3.org/1999/xlink" style="margin: auto; background: none; display: block; shape-rendering: auto;" width="198px" height="198px" viewBox="0 0 100 100" preserveAspectRatio="xMidYMid">
<g transform="rotate(0 50 50)">
  <rect x="41" y="2" rx="9" ry="22" width="18" height="44" fill="#353535">
    <animate attributeName="opacity" values="1;0" keyTimes="0;1" dur="1.5151515151515151s" begin="-1.4492753623188404s" repeatCount="indefinite"></animate>
  </rect>
</g><g transform="rotate(15.652173913043478 50 50)">
  <rect x="41" y="2" rx="9" ry="22" width="18" height="44" fill="#666666">
    <animate attributeName="opacity" values="1;0" keyTimes="0;1" dur="1.5151515151515151s" begin="-1.3833992094861658s" repeatCount="indefinite"></animate>
  </rect>
</g><g transform="rotate(31.304347826086957 50 50)">
  <rect x="41" y="2" rx="9" ry="22" width="18" height="44" fill="#9b9b9b">
    <animate attributeName="opacity" values="1;0" keyTimes="0;1" dur="1.5151515151515151s" begin="-1.3175230566534912s" repeatCount="indefinite"></animate>
  </rect>
</g><g transform="rotate(46.95652173913044 50 50)">
  <rect x="41" y="2" rx="9" ry="22" width="18" height="44" fill="#d4d4d4">
    <animate attributeName="opacity" values="1;0" keyTimes="0;1" dur="1.5151515151515151s" begin="-1.2516469038208167s" repeatCount="indefinite"></animate>
  </rect>
</g><g transform="rotate(62.608695652173914 50 50)">
  <rect x="41" y="2" rx="9" ry="22" width="18" height="44" fill="#ffffff">
    <animate attributeName="opacity" values="1;0" keyTimes="0;1" dur="1.5151515151515151s" begin="-1.185770750988142s" repeatCount="indefinite"></animate>
  </rect>
</g><g transform="rotate(78.26086956521739 50 50)">
  <rect x="41" y="2" rx="9" ry="22" width="18" height="44" fill="#353535">
    <animate attributeName="opacity" values="1;0" keyTimes="0;1" dur="1.5151515151515151s" begin="-1.1198945981554675s" repeatCount="indefinite"></animate>
  </rect>
</g><g transform="rotate(93.91304347826087 50 50)">
  <rect x="41" y="2" rx="9" ry="22" width="18" height="44" fill="#666666">
    <animate attributeName="opacity" values="1;0" keyTimes="0;1" dur="1.5151515151515151s" begin="-1.054018445322793s" repeatCount="indefinite"></animate>
  </rect>
</g><g transform="rotate(109.56521739130434 50 50)">
  <rect x="41" y="2" rx="9" ry="22" width="18" height="44" fill="#9b9b9b">
    <animate attributeName="opacity" values="1;0" keyTimes="0;1" dur="1.5151515151515151s" begin="-0.9881422924901185s" repeatCount="indefinite"></animate>
  </rect>
</g><g transform="rotate(125.21739130434783 50 50)">
  <rect x="41" y="2" rx="9" ry="22" width="18" height="44" fill="#d4d4d4">
    <animate attributeName="opacity" values="1;0" keyTimes="0;1" dur="1.5151515151515151s" begin="-0.9222661396574439s" repeatCount="indefinite"></animate>
  </rect>
</g><g transform="rotate(140.8695652173913 50 50)">
  <rect x="41" y="2" rx="9" ry="22" width="18" height="44" fill="#ffffff">
    <animate attributeName="opacity" values="1;0" keyTimes="0;1" dur="1.5151515151515151s" begin="-0.8563899868247693s" repeatCount="indefinite"></animate>
  </rect>
</g><g transform="rotate(156.52173913043478 50 50)">
  <rect x="41" y="2" rx="9" ry="22" width="18" height="44" fill="#353535">
    <animate attributeName="opacity" values="1;0" keyTimes="0;1" dur="1.5151515151515151s" begin="-0.7905138339920947s" repeatCount="indefinite"></animate>
  </rect>
</g><g transform="rotate(172.17391304347825 50 50)">
  <rect x="41" y="2" rx="9" ry="22" width="18" height="44" fill="#666666">
    <animate attributeName="opacity" values="1;0" keyTimes="0;1" dur="1.5151515151515151s" begin="-0.7246376811594202s" repeatCount="indefinite"></animate>
  </rect>
</g><g transform="rotate(187.82608695652175 50 50)">
  <rect x="41" y="2" rx="9" ry="22" width="18" height="44" fill="#9b9b9b">
    <animate attributeName="opacity" values="1;0" keyTimes="0;1" dur="1.5151515151515151s" begin="-0.6587615283267456s" repeatCount="indefinite"></animate>
  </rect>
</g><g transform="rotate(203.47826086956522 50 50)">
  <rect x="41" y="2" rx="9" ry="22" width="18" height="44" fill="#d4d4d4">
    <animate attributeName="opacity" values="1;0" keyTimes="0;1" dur="1.5151515151515151s" begin="-0.592885375494071s" repeatCount="indefinite"></animate>
  </rect>
</g><g transform="rotate(219.1304347826087 50 50)">
  <rect x="41" y="2" rx="9" ry="22" width="18" height="44" fill="#ffffff">
    <animate attributeName="opacity" values="1;0" keyTimes="0;1" dur="1.5151515151515151s" begin="-0.5270092226613965s" repeatCount="indefinite"></animate>
  </rect>
</g><g transform="rotate(234.7826086956522 50 50)">
  <rect x="41" y="2" rx="9" ry="22" width="18" height="44" fill="#353535">
    <animate attributeName="opacity" values="1;0" keyTimes="0;1" dur="1.5151515151515151s" begin="-0.46113306982872193s" repeatCount="indefinite"></animate>
  </rect>
</g><g transform="rotate(250.43478260869566 50 50)">
  <rect x="41" y="2" rx="9" ry="22" width="18" height="44" fill="#666666">
    <animate attributeName="opacity" values="1;0" keyTimes="0;1" dur="1.5151515151515151s" begin="-0.39525691699604737s" repeatCount="indefinite"></animate>
  </rect>
</g><g transform="rotate(266.0869565217391 50 50)">
  <rect x="41" y="2" rx="9" ry="22" width="18" height="44" fill="#9b9b9b">
    <animate attributeName="opacity" values="1;0" keyTimes="0;1" dur="1.5151515151515151s" begin="-0.3293807641633728s" repeatCount="indefinite"></animate>
  </rect>
</g><g transform="rotate(281.7391304347826 50 50)">
  <rect x="41" y="2" rx="9" ry="22" width="18" height="44" fill="#d4d4d4">
    <animate attributeName="opacity" values="1;0" keyTimes="0;1" dur="1.5151515151515151s" begin="-0.26350461133069825s" repeatCount="indefinite"></animate>
  </rect>
</g><g transform="rotate(297.39130434782606 50 50)">
  <rect x="41" y="2" rx="9" ry="22" width="18" height="44" fill="#ffffff">
    <animate attributeName="opacity" values="1;0" keyTimes="0;1" dur="1.5151515151515151s" begin="-0.19762845849802368s" repeatCount="indefinite"></animate>
  </rect>
</g><g transform="rotate(313.04347826086956 50 50)">
  <rect x="41" y="2" rx="9" ry="22" width="18" height="44" fill="#353535">
    <animate attributeName="opacity" values="1;0" keyTimes="0;1" dur="1.5151515151515151s" begin="-0.13175230566534912s" repeatCount="indefinite"></animate>
  </rect>
</g><g transform="rotate(328.69565217391306 50 50)">
  <rect x="41" y="2" rx="9" ry="22" width="18" height="44" fill="#666666">
    <animate attributeName="opacity" values="1;0" keyTimes="0;1" dur="1.5151515151515151s" begin="-0.06587615283267456s" repeatCount="indefinite"></animate>
  </rect>
</g><g transform="rotate(344.3478260869565 50 50)">
  <rect x="41" y="2" rx="9" ry="22" width="18" height="44" fill="#9b9b9b">
    <animate attributeName="opacity" values="1;0" keyTimes="0;1" dur="1.5151515151515151s" begin="0s" repeatCount="indefinite"></animate>
  </rect>
</g>
<!-- [ldio] generated by https://loading.io/ --></svg>